Coordinates
version=1
nRows=17
nColumns=24
inDegrees=yes

Units are S.I. units (second, meters, Newtons, ...)
Angles are in degrees.

endheader
time	pelvis_tilt	pelvis_list	pelvis_rotation	pelvis_tx	pelvis_ty	pelvis_tz	hip_flexion_r	hip_adduction_r	hip_rotation_r	knee_angle_r	ankle_angle_r	subtalar_angle_r	mtp_angle_r	hip_flexion_l	hip_adduction_l	hip_rotation_l	knee_angle_l	ankle_angle_l	subtalar_angle_l	mtp_angle_l	lumbar_extension	lumbar_bending	lumbar_rotation
      0.70400000	     -2.72438754	      8.02942256	     11.06437294	      0.07082084	      0.97350408	      0.27962652	     29.55849436	    -12.28439403	     -5.41817935	     -0.94648679	      9.27887440	    -10.97724830	      3.92769372	    -21.57021848	      8.02877508	     16.20577566	     -1.66659956	      8.54962661	    -13.66061650	      9.50368917	     -0.62094057	     -9.23681935	     -2.28984575
      0.70816667	     -2.73703697	      7.99528687	     11.17448268	      0.07674062	      0.97296104	      0.28005621	     29.50623524	    -12.24403396	     -5.14052919	     -1.25836687	      9.29063270	    -11.38037648	      3.90856789	    -21.73305802	      7.87587879	     16.22124258	     -1.97223276	      8.44713377	    -13.53641024	      9.54469406	     -0.60117357	     -9.17664089	     -2.27492101
      0.71233333	     -2.75411080	      7.93375798	     11.30144212	      0.08272847	      0.97247151	      0.28046557	     29.46101544	    -12.18385112	     -4.98979055	     -1.62308886	      9.26758870	    -11.61944750	      3.89611709	    -21.86275784	      7.69317497	     16.21033507	     -2.32659987	      8.35164430	    -13.36390142	      9.60701587	     -0.58303255	     -9.09383284	     -2.39512009
      0.71650000	     -2.76489027	      7.87086026	     11.42329269	      0.08877446	      0.97202245	      0.28086598	     29.42209879	    -12.11942344	     -4.91577850	     -2.04813884	      9.24030927	    -11.73556206	      3.89535695	    -21.99935444	      7.51301139	     16.23378772	     -2.68079525	      8.20518748	    -13.30669182	      9.62461524	     -0.55896887	     -9.01107234	     -2.42681880
      0.72066667	     -2.78658347	      7.79519897	     11.53420997	      0.09487759	      0.97158787	      0.28131545	     29.36817777	    -12.02679589	     -4.72807559	     -2.44054166	      9.12649104	    -12.03307588	      3.90762220	    -22.08632471	      7.32561035	     16.13295294	     -3.10243398	      8.11015219	    -13.01432582	      9.73829327	     -0.50746580	     -8.90386527	     -2.63784503
      0.72483333	     -2.80262467	      7.70743655	     11.63990465	      0.10104676	      0.97120606	      0.28176666	     29.31201881	    -11.91770017	     -4.60217618	     -2.86536285	      8.96376906	    -12.27298315	      3.94500102	    -22.16587145	      7.13023384	     16.03105374	     -3.54772318	      7.99935064	    -12.77358212	      9.91786939	     -0.45221435	     -8.78789669	     -2.72521072
      0.72900000	     -2.80998270	      7.61302070	     11.74053808	      0.10725934	      0.97087453	      0.28222077	     29.26608574	    -11.79880801	     -4.54937181	     -3.34949800	      8.84252599	    -12.36563097	      3.95202775	    -22.26505790	      6.93089974	     16.02649684	     -3.96520720	      7.78172521	    -12.74046397	      9.94571609	     -0.41348541	     -8.67131588	     -2.74726390
      0.73316667	     -2.84631413	      7.49264978	     11.83035942	      0.11354830	      0.97053912	      0.28273253	     29.21562543	    -11.63926200	     -4.37286927	     -3.76732884	      8.54042435	    -12.72616763	      4.03113885	    -22.27808505	      6.71519936	     15.84746714	     -4.48234223	      7.65260139	    -12.41201411	     10.19105719	     -0.30648806	     -8.52057963	     -2.91318438
      0.73733333	     -2.85242863	      7.37101528	     11.90248209	      0.11988446	      0.97028034	      0.28322260	     29.17658317	    -11.47553630	     -4.34729555	     -4.28365447	      8.32150472	    -12.80715082	      4.04721183	    -22.34678173	      6.50419474	     15.78090301	     -4.94572285	      7.37771878	    -12.38607069	     10.23788406	     -0.24395307	     -8.37246163	     -2.93070238
      0.74150000	     -2.90467378	      7.21903507	     11.96993130	      0.12627753	      0.97000008	      0.28378008	     29.14747590	    -11.26993898	     -4.16459132	     -4.71894726	      7.91918229	    -13.20307420	      4.17550936	    -22.29832705	      6.27384174	     15.54339659	     -5.53331106	      7.22150115	    -12.01916218	     10.57208188	     -0.10029775	     -8.18370434	     -3.04233753
      0.74566667	     -2.94718292	      7.05000580	     12.02108067	      0.13272788	      0.96976431	      0.28433394	     29.13601188	    -11.04343735	     -4.06763540	     -5.21259610	      7.54016624	    -13.46582844	      4.38692801	    -22.25167133	      6.03410102	     15.30493820	     -6.12576999	      7.00027064	    -11.73775688	     11.09926667	      0.04327298	     -7.97569085	     -3.07723156
      0.74983333	     -2.95642827	      6.88985415	     12.06373178	      0.13919412	      0.96962070	      0.28488513	     29.11396966	    -10.82665977	     -4.07800647	     -5.76027341	      7.16146446	    -13.52566319	      6.45631418	    -22.23342894	      5.80002141	     15.07949005	     -6.71211257	      6.61459578	    -11.60249885	     16.36201480	      0.13730643	     -7.77992233	     -3.08203564
      0.75400000	     -2.96509480	      6.71527191	     12.06043355	      0.14571277	      0.96949805	      0.28547794	     29.11094509	    -10.57239688	     -4.02219315	     -6.33541283	      6.80059464	    -13.62955736	      6.44918600	    -22.22143516	      5.57878425	     14.90394983	     -7.29241133	      6.21983678	    -11.61362295	     16.37922914	      0.26134930	     -7.54772114	     -3.12461858
      0.75816667	     -3.02786095	      6.51495925	     12.06960171	      0.15224383	      0.96934820	      0.28612458	     29.15287152	    -10.29537347	     -3.88430224	     -6.88699504	      6.33550215	    -13.96456680	      6.45528085	    -22.07765586	      5.33741195	     14.60122329	     -8.00745247	      5.93651152	    -11.33198234	     16.50483896	      0.42800839	     -7.32184571	     -3.15074459
      0.76233333	     -3.05865814	      6.31148821	     12.05268988	      0.15880444	      0.96927257	      0.28677179	     29.19348372	    -10.00919841	     -3.82553817	     -7.50309385	      5.93587015	    -14.11041760	      6.48386111	    -21.95604909	      5.09886094	     14.27541996	     -8.73447679	      5.58196361	    -11.09380811	     16.70903613	      0.57811115	     -7.06759114	     -3.14355762
      0.76650000	     -3.06219799	      6.09899357	     12.00851346	      0.16541208	      0.96927216	      0.28742456	     29.22459153	     -9.70517082	     -3.79772340	     -8.15805385	      5.57661139	    -14.13779210	      6.49594102	    -21.87590842	      4.86144280	     14.01394491	     -9.42494411	      5.08653332	    -11.06085099	     16.79290106	      0.70191987	     -6.79317330	     -3.15582431
      0.77066667	     -3.09208528	      5.87502405	     11.97575734	      0.17199416	      0.96926666	      0.28811417	     29.29279917	     -9.39670846	     -3.76423689	     -8.83389067	      5.17513171	    -14.30523664	      7.25932027	    -21.67233400	      4.60624005	     13.55083438	    -10.28417970	      4.68472729	    -10.71139419	     21.43355471	      0.86390397	     -6.52584436	     -3.18695794
